<svg xmlns="http://www.w3.org/2000/svg" xmlns:xlink="http://www.w3.org/1999/xlink" viewBox="0 0 340 167.75"><defs><style>.cls-1{fill:url(#linear-gradient);}.cls-2{fill:url(#linear-gradient-2);}.cls-3{fill:url(#linear-gradient-3);}.cls-4{fill:url(#linear-gradient-4);}.cls-5{fill:#fff;opacity:0.25;}</style><linearGradient id="linear-gradient" x1="202.12" y1="55.89" x2="47.4" y2="190.7" gradientUnits="userSpaceOnUse"><stop offset="0" stop-color="#34b44a"/><stop offset="1" stop-color="#b0c836"/></linearGradient><linearGradient id="linear-gradient-2" x1="107.13" y1="110.49" x2="269.94" y2="-52.33" xlink:href="#linear-gradient"/><linearGradient id="linear-gradient-3" x1="6.68" y1="33.65" x2="340" y2="33.65" xlink:href="#linear-gradient"/><linearGradient id="linear-gradient-4" x1="171.44" y1="74.99" x2="157.65" y2="148.52" xlink:href="#linear-gradient"/></defs><g id="Layer_2" data-name="Layer 2"><g id="Layer_1-2" data-name="Layer 1"><rect class="cls-1" width="340" height="167.75"/><path class="cls-2" d="M340,17.73V88.89a269.17,269.17,0,0,1-117.79,26.64c-94,0-175.58-46.8-215.68-115.22C6.48.21,6.4.1,6.34,0l.34.31C50.89,41.71,113.87,67.6,183.79,67.6,243.32,67.6,297.85,48.84,340,17.73Z"/><path class="cls-3" d="M340,0V17.42c-42.16,31.11-96.68,49.87-156.21,49.87C113.87,67.29,50.89,41.39,6.68,0Z"/><path class="cls-4" d="M340,88.88v73.36q-7.59,3-15.43,5.51H157.18C75.93,141.62,14.17,76.71.58,0H6.39C46.5,68.41,128.18,115.53,222.21,115.53A269,269,0,0,0,340,88.88Z"/><path class="cls-5" d="M312.62,74.38H290a1.17,1.17,0,0,0-1.17,1.17V92.21A1.18,1.18,0,0,0,290,93.38h22.66a1.17,1.17,0,0,0,1.17-1.17V75.55A1.17,1.17,0,0,0,312.62,74.38Zm-10.42,2.5h0a1.87,1.87,0,1,1-1.88,1.86A1.87,1.87,0,0,1,302.21,76.88Zm-1.59,12.61a7.17,7.17,0,0,1-3.4-5.23,7.42,7.42,0,0,1,.76-4.65,6.5,6.5,0,0,1,2.35-2.53l.12-.07c-.15.34-.31.65-.43,1a3.13,3.13,0,0,0,.18,2.4c.32.7.7,1.36,1.06,2.06a4.34,4.34,0,0,0-1.8,3.4,5.51,5.51,0,0,0,1.3,3.71Zm2.92.74c-.07.16-.15.32-.23.47a1.19,1.19,0,0,1-.1.18c-.26-.14-.53-.26-.78-.42a5,5,0,0,1-2.4-4.68,4,4,0,0,1,2-3.19l-.1.36a2.38,2.38,0,0,0,.37,1.82c.36.6.75,1.18,1.1,1.78A3.88,3.88,0,0,1,303.53,90.23Zm.43-5.12a1.52,1.52,0,1,1,1.51-1.52A1.52,1.52,0,0,1,304,85.11Z"/></g></g></svg>